<?xml version="1.0" encoding="UTF-8"?><svg id="_レイヤー_2" xmlns="http://www.w3.org/2000/svg" viewBox="0 0 413.12 130.26"><defs><style>.cls-1{fill:#1f2f54;}</style></defs><g id="_レイヤー_1-2"><path class="cls-1" d="m0,0h34.4v130H0V0Z"/><path class="cls-1" d="m43.2,0h34.4v101.2h49.2v28.8H43.2V0Z"/><rect class="cls-1" x="144.6" width="7" height="130"/><path class="cls-1" d="m181.5,1.05h6.96v39.24h-6.96V1.05Z"/><path class="cls-1" d="m198.42,1.05h7.87l6.94,19.18c.86,2.5,1.66,5.14,2.52,7.7h.24c.86-2.57,1.61-5.21,2.47-7.7l6.79-19.18h7.87v39.24h-6.38v-17.95c0-3.62.55-8.84.89-12.48h-.24l-3.17,9.12-6.46,17.63h-4.13l-6.48-17.63-3.12-9.12h-.24c.34,3.64.89,8.86.89,12.48v17.95h-6.26V1.05Z"/><path class="cls-1" d="m243.11,1.05h12.36c8.71,0,15.17,3.02,15.17,12.1s-6.48,12.72-14.93,12.72h-5.64v14.42h-6.96V1.05Zm12.02,19.25c5.86,0,8.64-2.33,8.64-7.15s-3.05-6.53-8.88-6.53h-4.82v13.68h5.06Z"/><path class="cls-1" d="m278.03,1.05h13.22c8.16,0,14.45,2.88,14.45,11.64s-6.29,12.26-14.45,12.26h-6.26v15.34h-6.96V1.05Zm12.5,18.33c5.38,0,8.3-2.23,8.3-6.7s-2.93-6.07-8.3-6.07h-5.54v12.77h5.54Zm-.59,3.71l5.04-4.15,12.25,21.35h-7.82l-9.47-17.2Z"/><path class="cls-1" d="m311.49,20.52c0-12.7,7.08-20.18,17.3-20.18s17.3,7.52,17.3,20.18-7.08,20.5-17.3,20.5-17.3-7.8-17.3-20.5Zm27.46,0c0-8.81-3.98-14.14-10.15-14.14s-10.15,5.33-10.15,14.14,3.98,14.45,10.15,14.45,10.15-5.64,10.15-14.45Z"/><path class="cls-1" d="m348.79,1.05h7.37l5.52,19.73c1.27,4.45,2.14,8.3,3.46,12.77h.24c1.32-4.46,2.22-8.32,3.46-12.77l5.45-19.73h7.1l-12.14,39.24h-8.26l-12.19-39.24Z"/><path class="cls-1" d="m386.15,1.05h23.62v5.86h-16.66v10.06h14.11v5.86h-14.11v11.62h17.25v5.86h-24.21V1.05Z"/><path class="cls-1" d="m181.17,58.32h12.76v61.2h29.88v10.74h-42.64V58.32Z"/><path class="cls-1" d="m251.46,58.32h12.76v71.94h-12.76V58.32Z"/><path class="cls-1" d="m297.55,58.32h43.47v10.74h-30.71v20.42h26.14v10.74h-26.14v30.05h-12.76V58.32Z"/><path class="cls-1" d="m368.72,58.32h43.3v10.74h-30.54v18.44h25.87v10.74h-25.87v21.3h31.64v10.74h-44.4V58.32Z"/></g></svg>